<?xml version="1.0" standalone="no"?>
<!DOCTYPE svg PUBLIC "-//W3C//DTD SVG 20010904//EN"
 "http://www.w3.org/TR/2001/REC-SVG-20010904/DTD/svg10.dtd">
<svg version="1.0" xmlns="http://www.w3.org/2000/svg"
 width="842.000000pt" height="833.000000pt" viewBox="0 0 842.000000 833.000000"
 preserveAspectRatio="xMidYMid meet">

<g transform="translate(0.000000,833.000000) scale(0.100000,-0.100000)"
fill= "#e83131" stroke="none">
<path d="M4500 8305 c-510 -134 -967 -689 -1250 -1520 -172 -505 -263 -1037
-286 -1664 -6 -186 -6 -193 12 -188 65 20 752 95 1069 118 188 13 611 16 708
5 59 -7 67 -6 67 9 0 33 61 144 105 192 l45 48 -41 -100 c-23 -55 -47 -112
-55 -127 l-14 -26 48 -6 c26 -3 132 -13 235 -22 174 -16 189 -19 197 -38 4
-12 7 -22 6 -23 -1 -1 -72 4 -157 12 -251 25 -647 35 -942 24 -545 -18 -1038
-78 -1612 -196 -225 -45 -734 -170 -747 -182 -4 -3 4 -59 17 -125 13 -65 31
-175 39 -245 20 -158 38 -539 30 -603 -4 -28 -3 -48 3 -48 5 0 64 20 132 45
327 121 776 236 1176 300 404 65 764 90 1185 82 361 -7 621 -31 941 -87 l66
-12 7 -66 c21 -226 -3 -1033 -50 -1687 -29 -405 -116 -1329 -139 -1475 l-6
-36 -87 0 c-75 0 -96 -4 -149 -28 -73 -33 -144 -103 -176 -174 -32 -69 -30
-197 3 -267 31 -64 101 -134 165 -164 67 -33 192 -40 263 -17 148 50 234 167
234 323 0 124 -68 235 -181 291 l-58 29 34 84 c379 939 751 2038 929 2754 24
99 46 185 49 192 3 8 37 -1 107 -28 57 -21 106 -39 109 -39 4 0 10 91 13 203
13 396 44 684 82 777 18 41 11 48 -67 76 -43 16 -49 21 -49 46 0 35 10 35 89
-6 l65 -33 68 103 c122 185 301 352 422 395 68 24 100 24 151 0 112 -50 180
-197 222 -480 25 -161 24 -719 0 -1011 -34 -404 -84 -805 -162 -1316 -25 -160
-45 -299 -45 -309 0 -42 269 345 405 583 348 611 590 1330 671 1997 21 179 30
567 15 735 -81 943 -533 1570 -1346 1867 -164 60 -241 76 -380 75 -143 0 -268
-29 -389 -88 -42 -20 -78 -35 -80 -33 -1 2 -20 36 -41 74 -210 381 -576 730
-984 939 -168 86 -254 108 -441 112 -141 4 -164 2 -250 -21z"/>
<path d="M2035 7549 c-254 -20 -447 -86 -664 -229 -146 -96 -224 -161 -376
-314 -553 -555 -910 -1433 -986 -2424 -17 -219 -6 -696 20 -892 81 -597 270
-1095 560 -1475 99 -131 397 -412 416 -393 3 2 1 110 -5 239 -13 307 -13 948
0 1219 53 1123 235 1781 492 1780 94 0 249 -158 340 -345 12 -25 26 -45 31
-45 5 0 98 25 206 56 210 60 531 137 727 174 l121 23 6 246 c17 623 140 1283
318 1696 l39 89 -25 53 c-115 253 -441 462 -815 523 -143 23 -275 30 -405 19z"/>
<path d="M7053 2020 c-93 -20 -191 -93 -231 -173 -85 -171 -22 -364 150 -454
48 -26 62 -28 158 -28 89 0 112 4 151 23 75 37 125 87 161 160 29 59 33 76 33
147 -1 97 -23 152 -89 223 -80 85 -216 127 -333 102z"/>
<path d="M1007 1811 c-94 -31 -163 -92 -205 -181 -21 -45 -26 -70 -27 -135 0
-71 4 -88 33 -147 37 -76 82 -120 162 -157 47 -22 69 -26 150 -26 81 0 103 4
150 26 260 122 258 485 -3 604 -78 36 -181 42 -260 16z"/>
</g>
</svg>
